<?xml version="1.0" encoding="iso-8859-1"?>
<!-- Uploaded to: SVG Repo, www.svgrepo.com, Generator: SVG Repo Mixer Tools -->
<svg height="800px" width="800px" version="1.1" id="Layer_1" xmlns="http://www.w3.org/2000/svg" xmlns:xlink="http://www.w3.org/1999/xlink" 
	 viewBox="0 0 512 512" xml:space="preserve">
<circle style="fill:#FFDB56;" cx="238.844" cy="272.86" r="230.76"/>
<path style="fill:#FBA806;" d="M238.847,42.101c-5.005,0-9.968,0.178-14.893,0.491v232.744l206.489,126.182
	c24.732-36.758,39.169-81.019,39.169-128.654C469.612,145.417,366.294,42.101,238.847,42.101z"/>
<path style="fill:#F77935;" d="M256.144,263.147L473.79,395.674c19.231-36.716,30.125-78.488,30.125-122.808
	c0-140.581-109.444-255.579-247.772-264.492v254.773H256.144z"/>
<path style="fill:#D9510D;" d="M256.144,8.373v4.541c121.544,24.125,213.179,131.321,213.179,259.952
	c0,37.891-7.983,73.906-22.311,106.503l26.778,16.305c19.231-36.716,30.125-78.488,30.125-122.808
	C503.916,132.285,394.473,17.285,256.144,8.373z"/>
<path d="M437.789,85.703C390.147,35.089,325.823,4.762,256.663,0.306c-2.235-0.152-4.42,0.642-6.049,2.17
	c-1.63,1.528-2.554,3.662-2.554,5.897v25.824c-3.084-0.119-6.163-0.18-9.213-0.18c-46.938,0-92.37,13.607-131.384,39.352
	c-3.726,2.458-4.754,7.472-2.295,11.2c2.458,3.726,7.474,4.753,11.2,2.295c36.363-23.995,78.716-36.678,122.479-36.678
	c3.049,0,6.128,0.064,9.213,0.191v212.772c0,2.821,1.47,5.438,3.88,6.905l66.167,40.29c0,0,0.001,0,0.001,0.001l0.002,0.001
	c0.295,0.18,0.598,0.331,0.905,0.469c0.084,0.038,0.168,0.071,0.252,0.106c0.248,0.101,0.498,0.19,0.751,0.265
	c0.07,0.02,0.139,0.045,0.209,0.064c0.322,0.086,0.648,0.154,0.974,0.199c0.037,0.005,0.072,0.006,0.109,0.011
	c0.293,0.037,0.587,0.055,0.882,0.059c0.037,0.001,0.073,0.008,0.11,0.008c0.038,0,0.075-0.006,0.113-0.008
	c0.272-0.004,0.542-0.02,0.811-0.052c0.042-0.004,0.084-0.006,0.125-0.012c0.322-0.042,0.641-0.102,0.956-0.182
	c0.017-0.004,0.035-0.011,0.052-0.015c0.287-0.075,0.568-0.168,0.845-0.274c0.058-0.023,0.116-0.046,0.175-0.07
	c0.255-0.105,0.507-0.222,0.751-0.354c0.038-0.021,0.075-0.038,0.113-0.058c0.566-0.315,1.096-0.701,1.579-1.151
	c0.041-0.039,0.081-0.079,0.121-0.119c0.204-0.198,0.397-0.407,0.581-0.629c0.032-0.04,0.067-0.078,0.099-0.117
	c0.211-0.265,0.414-0.541,0.595-0.837c2.322-3.813,1.113-8.786-2.7-11.108l-62.291-37.929V42.745V17.137
	c61.772,6.056,118.949,34.134,161.79,79.646c45.021,47.829,69.815,110.362,69.815,176.081c0,38.522-8.735,76.829-25.329,111.343
	l-79.143-48.19l-35.052-21.343c-3.813-2.323-8.786-1.112-11.108,2.7c-2.322,3.813-1.113,8.786,2.7,11.108l0.003,0.002
	c0.001,0.001,0.001,0.001,0.001,0.001l23.511,14.317l62.287,37.927c-18.347,33.079-44.859,61.026-77.054,81.138
	c-35.269,22.032-76.005,33.677-117.805,33.677c-122.784,0.001-222.678-99.893-222.678-222.679
	c0-62.771,26.704-122.952,73.264-165.113c3.309-2.996,3.563-8.108,0.566-11.418c-2.995-3.309-8.107-3.562-11.418-0.566
	C28.641,140.988,0,205.537,0,272.865c0,63.798,24.845,123.778,69.957,168.89s105.092,69.957,168.89,69.957
	c44.832,0,88.53-12.494,126.371-36.133c34.335-21.449,62.638-51.218,82.3-86.44l22.069,13.438c1.278,0.779,2.734,1.179,4.205,1.179
	c0.723,0,1.451-0.097,2.161-0.294c2.152-0.597,3.962-2.06,4.999-4.039C501.264,360.647,512,316.883,512,272.865
	C512,203.011,485.645,136.542,437.789,85.703z"/>
</svg>